<svg version="1.2" xmlns="http://www.w3.org/2000/svg" viewBox="0 0 580 580">

	<path fill="currentColor"
		d="m215 71l-89 89h-102c-13.3 0-24 10.7-24 24v144c0 13.3 10.7 24 24 24h102.1l89 89c15 15 41 4.5 41-17v-336c-0.1-21.4-26.1-32-41.1-17zm246.6 185l45.6-45.6c6.3-6.3 6.3-16.5 0-22.8l-22.8-22.8c-6.3-6.3-16.5-6.3-22.8 0l-45.6 45.6-45.6-45.6c-6.3-6.3-16.5-6.3-22.8 0l-22.8 22.8c-6.3 6.3-6.3 16.5 0 22.8l45.6 45.6-45.6 45.6c-6.3 6.3-6.3 16.5 0 22.8l22.8 22.8c6.3 6.3 16.5 6.3 22.8 0l45.6-45.6 45.6 45.6c6.3 6.3 16.5 6.3 22.8 0l22.8-22.8c6.3-6.3 6.3-16.5 0-22.8z" />
</svg>